# xmcd
#
# Track frame offsets: 
#        150
#        16785
#        31155
#        49145
#        62730
#        78900
#        90345
#        108054
#        121557
#        135507
#        150365
#        169515
#        183460
#        197752
#        210975
#        229135
#        240687
#        253512
#
# Disc length: 3513 seconds
#
# Revision: 0
# Processed by: cddbd v1.4PL0 Copyright (c) Steve Scherf et al.
# Submitted via: ExactAudioCopy v0.90b4
#
DISCID=cc0db712
DTITLE=Bottlenecks - Boogie Baby
DYEAR=1998
DGENRE=
TTITLE0=Dirty dozen
TTITLE1=Good morning little school girl
TTITLE2=Boogie baby
TTITLE3=How you want it done
TTITLE4=Someday baby blues
TTITLE5=You gonna miss me
TTITLE6=Tiger man
TTITLE7=Bulldoze blues
TTITLE8=You just as well let he go
TTITLE9=Walk on
TTITLE10=I found a dream
TTITLE11=Mighty long time
TTITLE12=Big road blues
TTITLE13=Ain't nobody's business
TTITLE14=See see rider
TTITLE15=Ardoin two-step
TTITLE16=John Hardy
TTITLE17=Easy
EXTD=
EXTT0=
EXTT1=
EXTT2=
EXTT3=
EXTT4=
EXTT5=
EXTT6=
EXTT7=
EXTT8=
EXTT9=
EXTT10=
EXTT11=
EXTT12=
EXTT13=
EXTT14=
EXTT15=
EXTT16=
EXTT17=
PLAYORDER=
